<svg width="512" height="512" viewBox="0 0 512 512" fill="none" xmlns="http://www.w3.org/2000/svg">
<path d="M256 118C250.165 118 244.569 115.682 240.444 111.556C236.318 107.431 234 101.835 234 96V48C234 42.1652 236.318 36.5694 240.444 32.4436C244.569 28.3178 250.165 26 256 26C261.835 26 267.431 28.3178 271.556 32.4436C275.682 36.5694 278 42.1652 278 48V96C278 101.835 275.682 107.431 271.556 111.556C267.431 115.682 261.835 118 256 118ZM256 486C250.165 486 244.569 483.682 240.444 479.556C236.318 475.431 234 469.835 234 464V416C234 410.165 236.318 404.569 240.444 400.444C244.569 396.318 250.165 394 256 394C261.835 394 267.431 396.318 271.556 400.444C275.682 404.569 278 410.165 278 416V464C278 469.835 275.682 475.431 271.556 479.556C267.431 483.682 261.835 486 256 486ZM369.14 164.86C364.79 164.859 360.537 163.569 356.92 161.152C353.303 158.736 350.484 155.301 348.819 151.282C347.153 147.263 346.717 142.841 347.564 138.574C348.412 134.307 350.505 130.387 353.58 127.31L387.52 93.37C391.664 89.3339 397.231 87.0923 403.015 87.1304C408.799 87.1684 414.336 89.4832 418.426 93.5735C422.517 97.6638 424.832 103.201 424.87 108.985C424.908 114.769 422.666 120.336 418.63 124.48L384.69 158.42C382.65 160.465 380.226 162.086 377.557 163.191C374.889 164.296 372.028 164.863 369.14 164.86ZM108.92 425.08C104.569 425.079 100.315 423.789 96.6974 421.37C93.0797 418.952 90.2603 415.516 88.5958 411.495C86.9314 407.475 86.4965 403.051 87.3463 398.784C88.1961 394.516 90.2924 390.596 93.37 387.52L127.31 353.58C129.343 351.493 131.77 349.83 134.45 348.689C137.131 347.547 140.012 346.95 142.925 346.931C145.838 346.911 148.727 347.471 151.422 348.577C154.117 349.683 156.566 351.314 158.626 353.374C160.686 355.434 162.317 357.883 163.423 360.578C164.529 363.273 165.089 366.162 165.069 369.075C165.05 371.988 164.453 374.869 163.311 377.549C162.17 380.23 160.507 382.657 158.42 384.69L124.48 418.63C122.439 420.677 120.014 422.301 117.344 423.408C114.673 424.515 111.811 425.083 108.92 425.08ZM464 278H416C410.165 278 404.569 275.682 400.444 271.556C396.318 267.431 394 261.835 394 256C394 250.165 396.318 244.569 400.444 240.444C404.569 236.318 410.165 234 416 234H464C469.835 234 475.431 236.318 479.556 240.444C483.682 244.569 486 250.165 486 256C486 261.835 483.682 267.431 479.556 271.556C475.431 275.682 469.835 278 464 278ZM96 278H48C42.1652 278 36.5694 275.682 32.4436 271.556C28.3178 267.431 26 261.835 26 256C26 250.165 28.3178 244.569 32.4436 240.444C36.5694 236.318 42.1652 234 48 234H96C101.835 234 107.431 236.318 111.556 240.444C115.682 244.569 118 250.165 118 256C118 261.835 115.682 267.431 111.556 271.556C107.431 275.682 101.835 278 96 278ZM403.08 425.08C400.189 425.083 397.327 424.515 394.656 423.408C391.986 422.301 389.561 420.677 387.52 418.63L353.58 384.69C349.544 380.546 347.302 374.979 347.34 369.195C347.378 363.411 349.693 357.874 353.784 353.784C357.874 349.693 363.411 347.378 369.195 347.34C374.979 347.302 380.546 349.544 384.69 353.58L418.63 387.52C421.708 390.596 423.804 394.516 424.654 398.784C425.503 403.051 425.069 407.475 423.404 411.495C421.74 415.516 418.92 418.952 415.303 421.37C411.685 423.789 407.431 425.079 403.08 425.08ZM142.86 164.86C139.971 164.866 137.11 164.3 134.441 163.194C131.772 162.089 129.349 160.466 127.31 158.42L93.37 124.48C89.3339 120.336 87.0923 114.769 87.1304 108.985C87.1684 103.201 89.4832 97.6638 93.5735 93.5735C97.6638 89.4832 103.201 87.1684 108.985 87.1304C114.769 87.0923 120.336 89.3339 124.48 93.37L158.42 127.31C161.495 130.387 163.588 134.307 164.436 138.574C165.283 142.841 164.847 147.263 163.181 151.282C161.516 155.301 158.697 158.736 155.08 161.152C151.463 163.569 147.21 164.859 142.86 164.86ZM256 358C235.826 358 216.106 352.018 199.332 340.81C182.558 329.602 169.484 313.672 161.764 295.034C154.044 276.396 152.024 255.887 155.96 236.101C159.896 216.315 169.61 198.14 183.875 183.875C198.14 169.61 216.315 159.896 236.101 155.96C255.887 152.024 276.396 154.044 295.034 161.764C313.672 169.484 329.602 182.558 340.81 199.332C352.018 216.106 358 235.826 358 256C357.968 283.042 347.212 308.968 328.09 328.09C308.968 347.212 283.042 357.968 256 358Z" fill="white"/>
</svg>
